# xmcd
#
# Track frame offsets: 
#        300
#        23355
#        41445
#        70090
#        91180
#        126555
#        140860
#        167445
#        176935
#        192835
#        209340
#        223895
#        254910
#
# Disc length: 3754 seconds
#
# Revision: 1
# Processed by: cddbd v1.5.2PL0 Copyright (c) Steve Scherf et al.
# Submitted via: ExactAudioCopy v0.95b3
#
DISCID=c90ea60d
DTITLE=Jon Lord with the Hoochie Coochie Men - Live at the Basement CD
DTITLE=1
DYEAR=2003
DGENRE=Blues
TTITLE0=Intruduction
TTITLE1=Hideaway
TTITLE2=Lonesome Traveller Blues
TTITLE3=Blues with a Feeleing
TTITLE4=You Got Good Business
TTITLE5=Green Onions
TTITLE6=7 Blues
TTITLE7=Baby Please Don't Go
TTITLE8=The Money Doesn't Matter
TTITLE9=Strange Brew
TTITLE10=Dallas
TTITLE11=I Just Wanna Make Love to You
TTITLE12=You Need Love
EXTD=YEAR: 2003
EXTT0=
EXTT1=
EXTT2=
EXTT3=
EXTT4=
EXTT5=
EXTT6=
EXTT7=
EXTT8=
EXTT9=
EXTT10=
EXTT11=
EXTT12=
PLAYORDER=
